<?xml version="1.0"?>
<svg xmlns="http://www.w3.org/2000/svg" height="512px" viewBox="0 -45 512 511" width="512px"><g transform="matrix(1 0 0 1 0 0)"><path d="m135.511719.5v130.105469h-135.511719v220.957031h30.023438v69.59375l91.386718-69.59375h167.304688v-80.0625h51.5625l111.675781 90.878906v-90.878906h60.046875v-271zm123.203125 321.0625h-147.425782l-51.265624 39.042969v-39.042969h-30.023438v-160.957031h105.511719v110.894531h123.203125zm223.285156-80.0625h-60.046875v57.785156l-71.011719-57.785156h-185.429687v-211h316.488281zm0 0" data-original="#000000" class="active-path" fill="#000000"/><path d="m248.695312 121h30.023438v30h-30.023438zm0 0" data-original="#000000" class="active-path" fill="#000000"/><path d="m308.742188 121h30.027343v30h-30.027343zm0 0" data-original="#000000" class="active-path" fill="#000000"/><path d="m368.792969 121h30.023437v30h-30.023437zm0 0" data-original="#000000" class="active-path" fill="#000000"/></g> </svg>
